HIERARCHY
ROOT Hips
{
	OFFSET 46.061199 -5.952876 95.668602
	CHANNELS 6 Xposition Yposition Zposition Xrotation Yrotation Zrotation
	JOINT spine
	{
		OFFSET 0.000000 -0.458068 7.965683
		CHANNELS 3 Xrotation Yrotation Zrotation
		JOINT spine1
		{
			OFFSET 0.000000 -0.000002 10.243103
			CHANNELS 3 Xrotation Yrotation Zrotation
			JOINT spine2
			{
				OFFSET 0.000000 -0.000001 9.814751
				CHANNELS 3 Xrotation Yrotation Zrotation
				JOINT Neck
				{
					OFFSET 0.000000 -1.201384 25.198608
					CHANNELS 3 Xrotation Yrotation Zrotation
					JOINT Head
					{
						OFFSET 0.000000 -0.000001 7.613144
						CHANNELS 3 Xrotation Yrotation Zrotation
						End Site
						{
							OFFSET 0.000000 6.077327 18.428101
						}
					}
				}
				JOINT RightShoulder
				{
					OFFSET -4.132702 0.575449 10.599197
					CHANNELS 3 Xrotation Yrotation Zrotation
					JOINT RightArm
					{
						OFFSET 0.000000 -0.000002 13.901794
						CHANNELS 3 Xrotation Yrotation Zrotation
						JOINT RightArmRoll
						{
							OFFSET 0.000000 -0.000001 7.017883
							CHANNELS 3 Xrotation Yrotation Zrotation
							JOINT RightForeArm
							{
								OFFSET 0.000000 -0.000003 20.440598
								CHANNELS 3 Xrotation Yrotation Zrotation
								JOINT RightForeArmRoll
								{
									OFFSET 0.000000 -0.000001 7.875153
									CHANNELS 3 Xrotation Yrotation Zrotation
									JOINT RightHand
									{
										OFFSET 0.000000 -0.000002 15.803696
										CHANNELS 3 Xrotation Yrotation Zrotation
										End Site
										{
											OFFSET 0.000000 0.000000 0.100006
										}
									}
								}
							}
						}
					}
				}
				JOINT LeftShoulder
				{
					OFFSET 4.132702 0.575449 10.599197
					CHANNELS 3 Xrotation Yrotation Zrotation
					JOINT LeftArm
					{
						OFFSET 0.000000 -0.000002 13.901794
						CHANNELS 3 Xrotation Yrotation Zrotation
						JOINT LeftArmRoll
						{
							OFFSET 0.000000 -0.000001 7.017883
							CHANNELS 3 Xrotation Yrotation Zrotation
							JOINT LeftForeArm
							{
								OFFSET 0.000000 -0.000003 20.440598
								CHANNELS 3 Xrotation Yrotation Zrotation
								JOINT LeftForeArmRoll
								{
									OFFSET 0.000000 -0.000001 7.875153
									CHANNELS 3 Xrotation Yrotation Zrotation
									JOINT LeftHand
									{
										OFFSET 0.000000 -0.000002 15.803696
										CHANNELS 3 Xrotation Yrotation Zrotation
										End Site
										{
											OFFSET 0.000000 0.000000 0.100006
										}
									}
								}
							}
						}
					}
				}
			}
		}
	}
	JOINT RightUpLeg
	{
		OFFSET -7.060482 1.086101 -1.294701
		CHANNELS 3 Xrotation Yrotation Zrotation
		JOINT RightUpLegRoll
		{
			OFFSET 0.000000 -0.000003 18.530800
			CHANNELS 3 Xrotation Yrotation Zrotation
			JOINT RightLeg
			{
				OFFSET 0.000000 0.000004 -22.947601
				CHANNELS 3 Xrotation Yrotation Zrotation
				JOINT RightLegRoll
				{
					OFFSET 0.000000 -0.000004 23.022598
					CHANNELS 3 Xrotation Yrotation Zrotation
					JOINT RightFoot
					{
						OFFSET 0.000000 -0.000003 19.162498
						CHANNELS 3 Xrotation Yrotation Zrotation
						JOINT RightToeBase
						{
							OFFSET 0.000000 -0.000003 16.018799
							CHANNELS 3 Xrotation Yrotation Zrotation
							End Site
							{
								OFFSET 0.006790 0.894206 7.757812
							}
						}
					}
				}
			}
		}
	}
	JOINT LeftUpLeg
	{
		OFFSET 7.060482 1.086101 -1.294701
		CHANNELS 3 Xrotation Yrotation Zrotation
		JOINT LeftUpLegRoll
		{
			OFFSET 0.000000 -0.000003 18.530899
			CHANNELS 3 Xrotation Yrotation Zrotation
			JOINT LeftLeg
			{
				OFFSET 0.000000 -0.000003 22.947495
				CHANNELS 3 Xrotation Yrotation Zrotation
				JOINT LeftLegRoll
				{
					OFFSET 0.000000 -0.000004 23.235504
					CHANNELS 3 Xrotation Yrotation Zrotation
					JOINT LeftFoot
					{
						OFFSET 0.000000 -0.000003 18.949600
						CHANNELS 3 Xrotation Yrotation Zrotation
						JOINT LeftToeBase
						{
							OFFSET 0.000000 -0.000002 16.018799
							CHANNELS 3 Xrotation Yrotation Zrotation
							End Site
							{
								OFFSET -0.030430 0.894206 7.757828
							}
						}
					}
				}
			}
		}
	}
}
MOTION
Frames: 10
Frame Time: 0.041667
76.307800 -7.710554 95.236008 -4.185954 6.818943 102.410887 -1.440706 0.464404 1.246788 1.111940 0.909573 2.497968 2.756450 0.939415 2.486885 6.153572 45.026352 -1.601757 14.242971 -44.375036 4.102038 8.814080 -1.331983 26.554217 -84.069868 -173.683555 -68.727112 -0.000004 -0.000003 -0.000002 12.366029 9.533381 0.447010 -0.000014 -0.000009 -3.015840 -4.999961 -7.998807 0.000026 -155.857827 78.398346 161.630621 -197.954373 117.457083 229.815894 -0.000000 0.000000 -0.000000 98.511470 -3.107313 18.602280 0.000002 -0.000020 3.000898 -5.000227 7.999112 0.000005 11.011523 -177.736412 -0.756084 -179.999991 0.000005 -1.322005 168.159203 -2.049475 -0.934587 -0.000007 0.000003 0.146604 68.538742 6.844914 2.271841 26.898144 -7.301427 2.258533 -22.282258 181.437090 7.753011 -0.000003 -0.000004 -0.754365 -10.621160 -0.313522 0.307942 -0.000006 0.000000 -0.366310 71.615934 -7.105821 -1.353817 25.456909 7.354999 0.000006 
76.339111 -7.721214 95.236900 -4.194368 6.832277 102.517854 -1.431913 0.454185 1.245633 1.129766 0.889343 2.495413 2.774277 0.919155 2.484572 6.123861 45.159165 -1.521307 14.184024 -44.425094 4.144434 8.934519 -1.343232 26.741552 -83.695021 -173.754521 -68.514188 -0.000002 -0.000007 0.000001 12.455355 9.536886 0.433861 -0.000012 -0.000008 -3.015839 -4.999961 -7.998805 0.000026 -155.875668 78.368361 161.653693 -198.056156 117.418274 229.821877 -0.000001 -0.000000 0.000000 98.507133 -3.084850 18.569495 0.000002 -0.000018 3.000902 -5.000226 7.999110 0.000005 10.989653 -177.743119 -0.768881 -179.999991 0.000006 -1.320996 168.215948 -2.049900 -0.931547 -0.000008 0.000004 0.145274 68.518047 6.845026 2.272545 26.943589 -7.298036 2.329954 -22.300947 181.454480 7.767023 -0.000003 -0.000004 -0.754827 -10.638469 -0.322045 0.308314 -0.000006 -0.000000 -0.368915 71.628050 -7.104290 -1.356897 25.456911 7.354998 0.000006 
76.361397 -7.731806 95.232101 -4.201476 6.842329 102.625436 -1.422433 0.444673 1.244781 1.148943 0.870537 2.493501 2.793456 0.900329 2.482884 6.098037 45.280445 -1.445808 14.123735 -44.470586 4.182853 9.052861 -1.362536 26.922569 -83.317147 -173.822823 -68.306502 -0.000003 -0.000006 -0.000001 12.554026 9.532753 0.420127 -0.000017 -0.000008 -3.015841 -4.999962 -7.998803 0.000023 -155.869015 78.344920 161.652013 -198.152626 117.373659 229.832095 0.000000 0.000000 -0.000000 98.500917 -3.063928 18.536770 -0.000001 -0.000020 3.000900 -5.000226 7.999110 0.000007 10.971872 -177.751821 -0.782334 -179.999991 0.000006 -1.318999 168.267584 -2.050283 -0.929701 -0.000005 0.000003 0.144005 68.497686 6.845188 2.273136 26.984187 -7.294701 2.401541 -22.319258 181.473714 7.780486 -0.000005 -0.000004 -0.755316 -10.661678 -0.330214 0.308869 -0.000006 -0.000000 -0.371868 71.640775 -7.102957 -1.359471 25.456911 7.355006 0.000002 
76.395103 -7.742555 95.226997 -4.208397 6.849071 102.734760 -1.412269 0.435595 1.244318 1.169480 0.852608 2.492416 2.813983 0.882387 2.482010 6.076807 45.391993 -1.375637 14.060259 -44.513746 4.217110 9.165714 -1.385019 27.095646 -82.933571 -173.891958 -68.099609 -0.000005 -0.000007 0.000002 12.663505 9.524389 0.405904 -0.000014 -0.000009 -3.015838 -4.999959 -7.998804 0.000024 -155.838757 78.329183 161.626318 -198.244752 117.323430 229.845810 -0.000002 -0.000000 0.000000 98.492530 -3.044279 18.503085 0.000003 -0.000020 3.000899 -5.000223 7.999110 0.000005 10.958876 -177.763501 -0.796881 -179.999991 0.000005 -1.318004 168.317813 -2.049682 -0.926703 -0.000007 0.000004 0.142717 68.476137 6.845291 2.273891 27.018118 -7.291440 2.476185 -22.336971 181.492961 7.794116 -0.000006 -0.000005 -0.755812 -10.689185 -0.338623 0.309553 -0.000005 0.000000 -0.375128 71.653800 -7.101548 -1.361913 25.456907 7.355007 0.000001 
76.430901 -7.749336 95.224197 -4.215063 6.852782 102.844829 -1.401497 0.426918 1.244175 1.191216 0.835490 2.492028 2.835723 0.865265 2.481831 6.059901 45.494401 -1.310423 13.993897 -44.554430 4.247433 9.274610 -1.411624 27.261991 -82.545739 -173.961571 -67.894177 -0.000004 -0.000006 -0.000001 12.782051 9.511948 0.391267 -0.000015 -0.000009 -3.015842 -4.999957 -7.998805 0.000023 -155.789375 78.319341 161.581157 -198.332820 117.268051 229.862804 -0.000001 -0.000000 0.000000 98.482332 -3.025717 18.471437 0.000004 -0.000019 3.000899 -5.000224 7.999112 0.000006 10.950350 -177.779142 -0.812721 -179.999991 0.000005 -1.317006 168.366649 -2.049064 -0.924755 -0.000005 0.000004 0.141415 68.453563 6.845451 2.274520 27.046805 -7.288249 2.552993 -22.353995 181.513124 7.807565 -0.000003 -0.000004 -0.756319 -10.720699 -0.347243 0.310344 -0.000006 -0.000000 -0.378652 71.667037 -7.100127 -1.364241 25.456911 7.355007 0.000001 
76.466103 -7.758183 95.237503 -4.221419 6.853802 102.955669 -1.390175 0.418612 1.244299 1.214044 0.819119 2.492223 2.858543 0.848897 2.482214 6.047047 45.588494 -1.249793 13.925010 -44.592290 4.274068 9.381085 -1.443230 27.423008 -82.154997 -174.030993 -67.691648 -0.000002 -0.000008 0.000004 12.907750 9.495610 0.376307 -0.000015 -0.000007 -3.015841 -4.999962 -7.998806 0.000025 -155.723313 78.314519 161.519043 -198.416995 117.208437 229.882256 0.000001 0.000000 0.000000 98.470503 -3.008113 18.438804 0.000002 -0.000019 3.000898 -5.000226 7.999110 0.000005 10.945717 -177.796777 -0.829439 -179.999991 0.000006 -1.315995 168.414078 -2.048435 -0.921863 -0.000004 0.000003 0.140101 68.430258 6.845578 2.275289 27.071649 -7.285094 2.631050 -22.370423 181.533287 7.821213 -0.000005 -0.000004 -0.756836 -10.755607 -0.356041 0.311226 -0.000005 0.000000 -0.382401 71.680383 -7.098730 -1.366365 25.456911 7.355009 0.000001 
76.501198 -7.760946 95.224998 -4.227400 6.852436 103.066284 -1.378385 0.410643 1.244641 1.237792 0.803430 2.492872 2.882295 0.833218 2.483052 6.037979 45.674882 -1.193402 13.853926 -44.627080 4.297274 9.486615 -1.480702 27.580198 -81.762275 -174.099719 -67.491039 -0.000003 -0.000004 0.000001 13.038776 9.475535 0.361104 -0.000016 -0.000008 -3.015841 -4.999958 -7.998806 0.000026 -155.638906 78.315680 161.438297 -198.497605 117.144943 229.903894 -0.000003 -0.000000 0.000000 98.457334 -2.991246 18.408207 0.000002 -0.000019 3.000898 -5.000225 7.999109 0.000005 10.944569 -177.816407 -0.847025 -179.999991 0.000005 -1.314997 168.460223 -2.047795 -0.920014 -0.000004 0.000003 0.138780 68.406216 6.845749 2.276013 27.093976 -7.281971 2.709457 -22.386065 181.554392 7.834698 -0.000004 -0.000004 -0.757366 -10.793519 -0.364986 0.312178 -0.000005 -0.000000 -0.386328 71.693743 -7.097361 -1.368393 25.456911 7.355007 0.000001 
76.527298 -7.784044 95.215599 -4.232953 6.849023 103.178702 -1.366185 0.402979 1.245130 1.262349 0.788358 2.493848 2.906847 0.818160 2.484219 6.032397 45.754290 -1.140845 13.781007 -44.658553 4.317299 9.592718 -1.524861 27.734979 -81.369089 -174.167392 -67.293093 -0.000003 -0.000005 -0.000001 13.173098 9.451917 0.345780 -0.000014 -0.000009 -3.015842 -4.999960 -7.998806 0.000027 -155.542600 78.320099 161.345433 -198.574704 117.078513 229.927117 -0.000001 -0.000000 0.000000 98.442929 -2.975165 18.375640 0.000005 -0.000020 3.000901 -5.000222 7.999111 0.000003 10.946602 -177.839015 -0.865654 -179.999991 0.000006 -1.314002 168.504961 -2.046151 -0.918014 -0.000005 0.000004 0.137452 68.381860 6.845880 2.276848 27.115294 -7.278847 2.787308 -22.400905 181.575497 7.848420 -0.000004 -0.000005 -0.757911 -10.833833 -0.374045 0.313182 -0.000005 0.000000 -0.390393 71.707301 -7.095949 -1.370403 25.456911 7.355006 0.000012 
76.549103 -7.794915 95.219101 -4.238022 6.843845 103.290929 -1.353662 0.395587 1.245718 1.287568 0.773839 2.495036 2.932058 0.803656 2.485580 6.030028 45.827431 -1.091736 13.706562 -44.686257 4.334354 9.700859 -1.576527 27.888870 -80.976482 -174.232962 -67.099348 -0.000003 -0.000006 -0.000001 13.308988 9.424904 0.330385 -0.000013 -0.000008 -3.015839 -4.999956 -7.998805 0.000023 -155.432634 78.328705 161.238732 -198.648689 117.009583 229.951514 -0.000001 -0.000000 -0.000000 98.427670 -2.959638 18.345111 0.000003 -0.000019 3.000900 -5.000226 7.999109 0.000004 10.951238 -177.862607 -0.884936 -179.999991 0.000005 -1.313003 168.548510 -2.044513 -0.916065 -0.000005 0.000003 0.136126 68.357182 6.846010 2.277702 27.136912 -7.275675 2.863685 -22.415050 181.596589 7.862407 -0.000007 -0.000004 -0.758470 -10.876047 -0.383189 0.314219 -0.000005 -0.000000 -0.394554 71.720784 -7.094597 -1.372226 25.456911 7.355006 0.000012 
76.582001 -7.805514 95.211304 -4.242545 6.837251 103.402978 -1.340859 0.388436 1.246340 1.313296 0.759806 2.496321 2.957791 0.789640 2.487029 6.030563 45.894913 -1.045677 13.630962 -44.710053 4.348734 9.812501 -1.636472 28.043191 -80.585803 -174.296264 -66.908677 -0.000002 -0.000004 -0.000000 13.444544 9.394672 0.315028 -0.000012 -0.000009 -3.015838 -4.999958 -7.998811 0.000026 -155.315414 78.338821 161.124695 -198.719655 116.938890 229.976567 0.000000 -0.000000 0.000000 98.411613 -2.944527 18.313586 0.000002 -0.000020 3.000901 -5.000224 7.999111 0.000004 10.958058 -177.888192 -0.905029 -179.999991 0.000005 -1.312006 168.590857 -2.042851 -0.914156 -0.000004 0.000004 0.134801 68.332423 6.846191 2.278471 27.160223 -7.272429 2.937685 -22.428415 181.618623 7.876274 -0.000004 -0.000004 -0.759049 -10.919658 -0.392382 0.315273 -0.000005 -0.000000 -0.398766 71.734253 -7.093239 -1.374050 25.456911 7.355007 0.000011 
